<svg id="Layer_1" data-name="Layer 1" xmlns="http://www.w3.org/2000/svg" viewBox="0 0 800 800"><defs><style>.cls-1{fill:#e94f37;fill-rule:evenodd;}</style></defs><path class="cls-1" d="M400,175c-124.26,0-225,100.74-225,225S275.74,625,400,625,625,524.29,625,400,524.26,175,400,175Zm0,425c-110.46,0-200-89.55-200-200s89.54-200,200-200,200,89.55,200,200S510.46,600,400,600Z"/><path class="cls-1" d="M400,250a12.5,12.5,0,0,0,0,25A125,125,0,0,1,525,400a12.5,12.5,0,0,0,25,0A150,150,0,0,0,400,250Z"/><path class="cls-1" d="M787.5,387.5h-125a12.5,12.5,0,0,0,0,25h125a12.5,12.5,0,0,0,0-25Z"/><path class="cls-1" d="M143.21,455.88,94.92,468.81A12.5,12.5,0,0,0,101.4,493L149.69,480a12.5,12.5,0,1,0-6.48-24.15Z"/><path class="cls-1" d="M616.5,275a12.49,12.49,0,0,0,17.09,4.57l108.25-62.5a12.49,12.49,0,0,0-12.5-21.63l-108.25,62.5A12.49,12.49,0,0,0,616.5,275Z"/><path class="cls-1" d="M223.22,576.79a12.5,12.5,0,0,0-17.67,0L170.2,612.14a12.5,12.5,0,1,0,17.68,17.67l35.35-35.35A12.48,12.48,0,0,0,223.22,576.79Z"/><path class="cls-1" d="M525,183.5a12.52,12.52,0,0,0,17.09-4.57l62.5-108.25a12.5,12.5,0,0,0-21.65-12.52L520.45,166.43A12.47,12.47,0,0,0,525,183.5Z"/><path class="cls-1" d="M335.3,641.48A12.53,12.53,0,0,0,320,650.31L307.05,698.6a12.5,12.5,0,1,0,24.15,6.48l12.94-48.29A12.49,12.49,0,0,0,335.3,641.48Z"/><path class="cls-1" d="M400,150a12.5,12.5,0,0,0,12.52-12.5V12.5a12.51,12.51,0,0,0-25,0v125A12.49,12.49,0,0,0,400,150Z"/><path class="cls-1" d="M480,650.31a12.5,12.5,0,0,0-24.15,6.48l12.93,48.28A12.5,12.5,0,1,0,493,698.6Z"/><path class="cls-1" d="M258,178.9a12.5,12.5,0,1,0,21.64-12.5L217.1,58.15a12.5,12.5,0,0,0-21.66,12.5Z"/><path class="cls-1" d="M594.47,576.77a12.5,12.5,0,0,0-17.67,17.68l35.35,35.35a12.49,12.49,0,1,0,17.67-17.67Z"/><path class="cls-1" d="M58.17,217.06l108.28,62.49a12.49,12.49,0,0,0,12.49-21.64L70.67,195.41a12.5,12.5,0,0,0-12.5,21.65Z"/><path class="cls-1" d="M650.34,480l48.28,12.94a12.5,12.5,0,0,0,6.48-24.15l-48.29-12.94A12.5,12.5,0,1,0,650.34,480Z"/><path class="cls-1" d="M150,400a12.49,12.49,0,0,0-12.48-12.53l-125,0a12.5,12.5,0,1,0,0,25l125,0A12.47,12.47,0,0,0,150,400Z"/><path class="cls-1" d="M656.81,344.11l48.29-12.94A12.5,12.5,0,0,0,698.62,307L650.34,320a12.5,12.5,0,1,0,6.47,24.15Z"/><path class="cls-1" d="M183.5,525a12.47,12.47,0,0,0-17.06-4.6L58.18,582.92a12.5,12.5,0,1,0,12.5,21.64L178.93,542A12.46,12.46,0,0,0,183.5,525Z"/><path class="cls-1" d="M576.8,223.2a12.51,12.51,0,0,0,17.68,0l35.35-35.35a12.5,12.5,0,0,0-17.68-17.67L576.8,205.53A12.48,12.48,0,0,0,576.8,223.2Z"/><path class="cls-1" d="M275,616.5a12.48,12.48,0,0,0-17.06,4.55l-62.5,108.29a12.49,12.49,0,1,0,21.65,12.47l62.47-108.27A12.45,12.45,0,0,0,275,616.5Z"/><path class="cls-1" d="M464.73,158.5A12.55,12.55,0,0,0,480,149.66L493,101.38a12.5,12.5,0,1,0-24.14-6.48l-12.94,48.29A12.48,12.48,0,0,0,464.73,158.5Z"/><path class="cls-1" d="M400,650a12.48,12.48,0,0,0-12.5,12.48l0,125a12.49,12.49,0,1,0,25,0l0-125A12.45,12.45,0,0,0,400,650Z"/><path class="cls-1" d="M320,149.66a12.5,12.5,0,0,0,24.15-6.47L331.21,94.9a12.5,12.5,0,0,0-24.15,6.47Z"/><path class="cls-1" d="M542,621.09a12.49,12.49,0,0,0-21.63,12.48L583,741.84a12.5,12.5,0,0,0,21.63-12.52Z"/><path class="cls-1" d="M205.54,223.2a12.49,12.49,0,1,0,17.67-17.67l-35.35-35.35a12.49,12.49,0,0,0-17.67,17.67Z"/><path class="cls-1" d="M741.85,582.91,633.56,520.45a12.48,12.48,0,0,0-12.49,21.62l108.3,62.49a12.49,12.49,0,0,0,12.48-21.65Z"/><path class="cls-1" d="M149.67,320,101.37,307A12.51,12.51,0,0,0,94.9,331.2l48.29,12.93A12.5,12.5,0,0,0,149.67,320Z"/></svg>